<svg id="events" xmlns="http://www.w3.org/2000/svg" width="21" height="25"><defs><style>.cls-1{fill:#bb9c66;fill-rule:evenodd}</style></defs><path class="cls-1" d="M1025 4326v-1h20v1h-20zm20 12v1h-20v-1h20zm-20-13h1v25h-1v-25zm0 8v-1h14v1h-14z" transform="translate(-1025 -4325)"/><path class="cls-1" d="M1029 4333v-1l7-7v1zm5 0v-1l6-7v1zm-8-2v-1l5-5v1zm-1 4v-1h17v1h-17zm0 2v-1h19v1h-19z" transform="translate(-1025 -4325)"/><path class="cls-1" d="M1045.27 4324.99l.74.67-7.28 6.68-.74-.68zm-7.28 7.35l.74-.68 7.28 6.68-.74.67z" transform="translate(-1025 -4325)"/></svg>