<svg id="sms" xmlns="http://www.w3.org/2000/svg" width="23" height="26"><defs><style>.cls-1{fill:none;stroke:#bb9c66;stroke-width:1px;fill-rule:evenodd}</style></defs><path class="cls-1" d="M525 4787h22v13h-22v-13zm0 0l11 7 11-7h-22z" transform="translate(-524.5 -4774.5)"/><path class="cls-1" d="M529 4775h15v16l-7 4-8-4v-16z" transform="translate(-524.5 -4774.5)"/><path class="cls-1" d="M532 4779v-1h9v1h-9zm0 2v-1h7v1h-7zm0 2v-1h9v1h-9zm0 5v-1h4v1h-4zm7 0v-1h2v1h-2zm-7-3v-1h7v1h-7zm-7 4v-2l4-4 .18 1.2zm22 0v-1l-3-4v1z" transform="translate(-524.5 -4774.5)"/></svg>